<svg xmlns="http://www.w3.org/2000/svg" viewBox="0 0 148.82 97.12"><defs><style>.cls-1{fill:#bb3539;}.cls-2{fill:#84a441;}.cls-3{fill:#bdc4ca;}.cls-4{fill:#b96530;}.cls-5{fill:#ebbc00;}.cls-6{fill:none;}</style></defs><title>paulig-group-logo-2019</title><g id="Layer_2" data-name="Layer 2"><g id="Layer_1-2" data-name="Layer 1"><path d="M148.82,53.15V61.4a15.59,15.59,0,1,1-1.73-20l-3,3a11.34,11.34,0,1,0,.49,15.52V57.4h-8.51V53.15ZM116.93,37.56h-4.25V67.32h4.25ZM91.42,63.07V37.56H87.17V67.32h21.26V63.07Zm-34-7.79a12.76,12.76,0,0,0,25.51,0V37.56H78.66V55.28a8.51,8.51,0,0,1-17,0V37.56H57.4ZM48.9,57.4h-17v9.92H27.64V49.61a12.76,12.76,0,1,1,25.51,0V67.32H48.9Zm0-4.25V49.61a8.51,8.51,0,1,0-17,0v3.54ZM24.1,47.48a9.93,9.93,0,0,1-9.93,9.92H4.25v9.92H0V37.56H14.17a9.93,9.93,0,0,1,9.93,9.92m-4.26,0a5.67,5.67,0,0,0-5.67-5.67H4.25V53.15h9.92a5.67,5.67,0,0,0,5.67-5.67"/><path class="cls-1" d="M72.55,17.46A10.41,10.41,0,1,1,62.14,7.05,10.41,10.41,0,0,1,72.55,17.46"/><path class="cls-2" d="M93.78,8.18A8.19,8.19,0,1,1,85.59,0a8.19,8.19,0,0,1,8.19,8.18"/><path class="cls-3" d="M85.63,24.75a6.43,6.43,0,1,1-6.43-6.44,6.43,6.43,0,0,1,6.43,6.44"/><path class="cls-4" d="M97.09,21.67A5.06,5.06,0,1,1,92,16.61a5.07,5.07,0,0,1,5.06,5.06"/><path class="cls-5" d="M76.11,4.85a4,4,0,1,1-4-4,4,4,0,0,1,4,4"/><rect id="SVGID" class="cls-6" width="148.82" height="68.03"/><path d="M47.39,86.94c.26-.43.5-.87.78-1.28s.38-.46.74,0a.34.34,0,0,0,.25.08c.22.29.07.57-.12.86-.49.75-1,1.5-1.45,2.28a2.45,2.45,0,0,0-.2,2.24A2.46,2.46,0,0,0,49,90.58a14,14,0,0,0,2.7-2.52,1.07,1.07,0,0,1,.18-.15l0,.35.05,0c.22-.39.43-.78.65-1.16.09-.16.23-.29.33-.45a.73.73,0,0,0,.06-.21.83.83,0,0,0-.22,0c-.24,0-.47.08-.7.1-.66,0-.81-.06-1-.69a1,1,0,0,0-.12-.24c.57-.11,1.11-.24,1.65-.3a1,1,0,0,0,.87-.55c.7-1.16,1.43-2.3,2.15-3.45,0,0,0-.15,0-.23s0-.12,0-.16a2.63,2.63,0,0,1,2.1-1.29.64.64,0,0,1,.33.1,1.58,1.58,0,0,1-.51,3c-.1,0-.29-.13-.36-.26a.37.37,0,0,1,.09-.53,1.88,1.88,0,0,0,.65-1.53,3.63,3.63,0,0,0-1,.7c-.89,1.29-1.72,2.61-2.56,3.91.6,0,1.14,0,1.69,0,.17,0,.44-.07.44.21,0,.12-.17.25-.31.43l0,.32a5.27,5.27,0,0,0-2.41.18.43.43,0,0,0-.23.19,53.36,53.36,0,0,0-3.59,8.29c-.22.64-.32,1.31-.49,2-.06.21-.11.47-.43.49-.11-.13,0-.45-.37-.32,0,0-.09-.08-.11-.13a1.88,1.88,0,0,1,0-1.56c.26-.42.31-.9.53-1.32a13.62,13.62,0,0,0,.58-1.42c.2-.48.38-1,.59-1.45s.33-.74.5-1.1a.12.12,0,0,1,.11-.05s.11.07.11.11-.06.2-.09.3L49.24,94.6a.56.56,0,0,0,0,.35.77.77,0,0,0,.19-.22c.7-1.86,1.39-3.73,2.09-5.6.06-.16.14-.32.21-.48l-.09-.05-.51,1-.1-.24L48.93,91c.5.1.73-.29,1-.39l.07.09-1.36,1.1a.94.94,0,0,1-.23.1,1.9,1.9,0,0,1-2.16-1.46v-.74l-1.58,1.4.22.08s0,0,0,0a5.43,5.43,0,0,1-.53.42,1.62,1.62,0,0,1-2.26-.23,3.47,3.47,0,0,1-.45-1.47,4.37,4.37,0,0,1,.4-2.22c.24-.62.48-1.24.73-1.86a2.11,2.11,0,0,1,.18-.24l.16.28c.07-.38.38-.66.19-1.06,0-.07.11-.22.2-.31a3.3,3.3,0,0,1,.43-.33l-.32,0A11,11,0,0,1,45.73,81a7.82,7.82,0,0,1,.77-.63c.3-.23.58-.1.85.08s.47.42.34.78a2.75,2.75,0,0,1-.32.67c-1,1.33-1.94,2.64-2.91,4-.06.08-.13.14-.19.21l-.09,0a2.31,2.31,0,0,1,.3-.61A18.48,18.48,0,0,0,47,82a2.47,2.47,0,0,0,.14-.41l-.11-.1a2.61,2.61,0,0,0-.65.46,24.38,24.38,0,0,0-1.57,2.2c-.48.8-.86,1.67-1.28,2.5a.31.31,0,0,0,0,.22l.53-.57.08.06-.35.48a5.66,5.66,0,0,0-1.2,3,1.08,1.08,0,0,0,1.81,1c.34-.26.69-.51,1-.8a2.87,2.87,0,0,0,.39-.57,1.39,1.39,0,0,1,.15-.19,4.15,4.15,0,0,0,1.39-2.14ZM54.19,84l1.7-2.41A6.28,6.28,0,0,0,54.19,84Z"/><path d="M69.6,89.45c0,.37-.11.73-.13,1.09s.16.62.55.37a5.79,5.79,0,0,0,1.65-1.31,24.61,24.61,0,0,0,1.65-3c.17-.31.3-.64.46-1a.4.4,0,0,1,.63-.1c.5.43.5.72.11,1.23a7.8,7.8,0,0,0-.75,1.28c-.28.57-.52,1.15-.75,1.73a.4.4,0,0,0,.35.6,1.36,1.36,0,0,0,.78-.1,3.15,3.15,0,0,0,1.55-2.25,13.48,13.48,0,0,1,.94-2.79c.51-1.13,1.15-2.21,1.74-3.31a2.9,2.9,0,0,1,.4-.54.91.91,0,0,1,1.52.13.81.81,0,0,1,0,.63c-.39.82-.79,1.62-1.23,2.41s-.91,1.53-1.39,2.28a13.89,13.89,0,0,1-1,1.32,1.68,1.68,0,0,0-.42,1.32c.06.5.34.64.78.38a7.33,7.33,0,0,0,2.17-2,35.15,35.15,0,0,0,2.78-4.17c.1-.19.23-.37-.15-.51l.48-.51.13.17c.15-.25.29-.49.44-.72s.47-.61.71-.92l-.1-.07c-.25.3-.65.5-.61,1l-.53.42c.27-.44.54-.89.82-1.32s.43-.68.67-1a6.21,6.21,0,0,1,.74-1,1,1,0,0,1,1.43.2c.07.11.13.22.22.39-.41.56-.84,1.12-1.26,1.7l-.94,1.32,0,0c-.56.49-.84,1.2-1.37,1.71a12,12,0,0,0-1.37,1.82,3.47,3.47,0,0,0-.3.37,15.45,15.45,0,0,0-1.59,2.76A6.9,6.9,0,0,0,79,91.93a6.1,6.1,0,0,0,.13.84.35.35,0,0,0,.46.32,2.36,2.36,0,0,1,.45-.08,3.14,3.14,0,0,1,.56.08c-.39.75-1.19.81-1.55.27a4.17,4.17,0,0,1-.52-3.25l.06.24s0,0,0,0,0-.29,0-.43c-.08,0-.17,0-.22,0a5.22,5.22,0,0,0-.48.46c-.45.46-1,.32-1.55.28a.23.23,0,0,1-.17-.1c-.26-.38-.51-.76-.77-1.16a8.38,8.38,0,0,1-.7.9,4.62,4.62,0,0,1-1.17.91,1.37,1.37,0,0,1-1-.14c-.21-.1-.33-.41-.48-.63a1.8,1.8,0,0,1-.11-.28l-.64.76a7.82,7.82,0,0,1-.55.6c-.29.25-.6.56-1,.42a1.49,1.49,0,0,1-1.15-1.2A4.63,4.63,0,0,1,69.23,88c.42-.89.89-1.75,1.36-2.62a.75.75,0,0,1,1.11-.1.44.44,0,0,1,0,.4c-.52.87-1.07,1.73-1.59,2.61a9.47,9.47,0,0,0-.5,1.13c.19-.57.39-1.15.59-1.72l-.08,0-.74,1.76Zm7.11-2,.13.08c.4-.56.82-1.11,1.18-1.69.26-.42.43-.89.67-1.32.39-.7.8-1.39,1.19-2.08l-.08,0Zm7.14-4.58c.19-.33.35-.63.53-.91s.43-.57.64-.86a17.86,17.86,0,0,0-3.19,4.25c.24-.28.46-.58.68-.88.37-.51.74-1,1.12-1.51C83.69,82.88,83.82,82.87,83.85,82.86Zm-5.15.72-.09-.06-1.08,1.77.1.06Zm-8,7.18.08.08,1-.9,0,0Z"/><path d="M19.32,80.34a1.88,1.88,0,0,0,1.17-.86l-.57.38.81-.88c-.81.14-1.62.26-2.43.42-.49.1-1,.26-1.44.39a1.47,1.47,0,0,0-.88.63c-.47.71-.93,1.42-1.42,2.13-.32.45-.68.88-1,1.34s-.68,1-1,1.6c2.14-.4,4.2-1.17,6.41-1.5a.71.71,0,0,1-.51.73c-.75.3-1.5.59-2.26.86-1.37.48-2.73,1-4.11,1.38a1.74,1.74,0,0,0-1,.87c-.59,1-1.18,2.06-1.74,3.1-.35.67-.66,1.36-1,2.11-.14-.09-.33-.15-.4-.27a.93.93,0,0,1-.14-1l1.92-3.7.12-.1-.09.37.05,0,.27-.57L10,87.72c-.56.11-1.11.23-1.66.32a11.25,11.25,0,0,1-1.62.22,1.36,1.36,0,0,1-.75-.33.52.52,0,0,1-.1-.45c0-.1.21-.18.34-.22l1.35-.34a2.87,2.87,0,0,0,.67,0c.71-.18,1.42-.37,2.11-.62a1.84,1.84,0,0,0,.78-.57c.46-.6.85-1.25,1.28-1.88l1.32-2,1-1.37-1,.28-3,.8a.38.38,0,0,0-.1,0,2.24,2.24,0,0,1-1.53.1.65.65,0,0,1-.65-.6c0-.21,0-.35.28-.4,1.14-.18,2.27-.36,3.4-.59.86-.17,1.71-.4,2.55-.64a2.48,2.48,0,0,0,1.54-1c.18-.29.52-.54.57-.85s.43-.61.68-.89.39-.31.53.05a.23.23,0,0,0,.12.12.39.39,0,0,1,.18.57c-.22.4-.48.79-.72,1.18a4,4,0,0,1-.29.35l.64-.17c.84-.2,1.68-.39,2.52-.6.35-.09.68-.21,1-.31a.35.35,0,0,1,.48.17c.15.23.36.43.53.65a.34.34,0,0,1-.06.48,4.39,4.39,0,0,1-1.8,1.07l-1,.34Zm-4.08,4.88v.13l2.47-.7,0-.08Zm4.26-6.48L21,78.56v-.09a2.11,2.11,0,0,1-.73.1A.66.66,0,0,0,19.5,78.74Z"/><path d="M117.6,90.87a26,26,0,0,1,3.7-5.36l-.24.25-.24.27-.07,0c.27-.32.53-.66.82-1,.07-.07.28,0,.4,0s.06.22,0,.32,0,.57-.39.56v-.36l-.88.92.06.07.22-.1c-.39.51-.48,1.15-.89,1.66a16,16,0,0,0-1.26,2.06c-.29.52-.54,1.06-.84,1.57-.11.18-.3.42-.46.43s-.41-.21-.5-.38a6.77,6.77,0,0,1-.42-1.22c-.05-.18.06-.39.1-.58a2,2,0,0,0,0-.24l-.08,0L115.61,91l-.08,0,.3-.11a1.64,1.64,0,0,1-1.57.73,1.9,1.9,0,0,1-1.06-1.2c0-.26-.06-.52-.08-.78s0-.51,0-.86c-.17.27-.33.47-.44.69a9.07,9.07,0,0,1-1.54,1.84.83.83,0,0,1-.16.09l.11.11.51-.51a2.18,2.18,0,0,1-1.19,1.3.83.83,0,0,1-.93-.57,2.07,2.07,0,0,1,0-1.69s0-.11,0-.22a10.56,10.56,0,0,0-1.33,1.35,2.29,2.29,0,0,1-.59.61,1.62,1.62,0,0,1-2.42-.89,4.44,4.44,0,0,1,.09-2.7c.27-.75.58-1.48.87-2.22a1.53,1.53,0,0,1,.17-.27l.1,0-.12.4a1.57,1.57,0,0,0,.4-1.21.56.56,0,0,1,.19-.35,2.43,2.43,0,0,1,.4-.31l-.28-.08A10.79,10.79,0,0,1,109.09,81c.22-.21.47-.4.71-.59a.62.62,0,0,1,.76,0c.27.18.57.37.44.76a2.55,2.55,0,0,1-.34.77c-.94,1.31-1.9,2.59-2.85,3.88-.08.11-.17.2-.25.3l-.11-.08a4.33,4.33,0,0,1,.41-.69,18.42,18.42,0,0,0,2.45-3.49,1.07,1.07,0,0,0,.07-.32c-.12,0-.27,0-.35.06a2.08,2.08,0,0,0-.57.49c-.51.73-1,1.47-1.49,2.24s-.77,1.5-1.15,2.25a.77.77,0,0,0-.08.27l.58-.62.07.07-.44.6a5.19,5.19,0,0,0-1.1,3.25,1,1,0,0,0,1.59.86,13.51,13.51,0,0,0,1.29-1,2.19,2.19,0,0,0,.29-.47,1.84,1.84,0,0,1,.17-.22c.38-.45.79-.88,1.14-1.35a16.61,16.61,0,0,0,1.22-1.79,1.47,1.47,0,0,1,.88-.69.84.84,0,0,1,1.15.29s.1.09.17.16c.13-.25.29-.44.58-.3a.59.59,0,0,1,.41.76c-.2.58-.48,1.13-.65,1.72a12.49,12.49,0,0,0-.3,1.71,1.16,1.16,0,0,0,.08.52.38.38,0,0,0,.56.27l.25-.13a6.91,6.91,0,0,0,2-1.81,3.68,3.68,0,0,0,.42-1.3c.09-.41.26-.51.6-.28l.34.19a.63.63,0,0,1,.28.73c-.18.46-.38.9-.53,1.36s-.22.94-.33,1.4Zm-4-4.38c-.35-.27-.57-.06-.77.14a12.24,12.24,0,0,0-2.21,3,8.64,8.64,0,0,0-.42,1.43c.61-.05.71-.59,1.06-.81l.07.06-.29.5a11.21,11.21,0,0,0,2.14-3.11l-.22.23-.08,0ZM115.84,90l.07.06c.32-.35.74-.62.89-1.13Zm-6.79-7.65-.07-.06-.71,1,.06,0Z"/><path d="M127.8,88.45l.45-1-.09,0-.91,2,.11,0,.18-.12,0,.15a8.87,8.87,0,0,0-.17,1c0,.5.18.65.6.38a5.78,5.78,0,0,0,1.64-1.32,28.83,28.83,0,0,0,1.65-3c.15-.29.29-.6.43-.89a.39.39,0,0,1,.65-.12c.48.43.44.68.09,1.24-.48.75-.86,1.58-1.27,2.38a3,3,0,0,0-.23.59c-.1.32,0,.57.33.61a1.29,1.29,0,0,0,.78-.08,3.68,3.68,0,0,0,1-.89,16.9,16.9,0,0,0,1.67-2.73,1.41,1.41,0,0,1,.46-.45.67.67,0,0,1,.78.19c0,.06.07.15.05.2a4,4,0,0,1-.41.79,4.14,4.14,0,0,0-.66,1.75l1.91-2.41,0,0-.34.29a5.74,5.74,0,0,1,1.93-2c.19.29.39.58.56.89a.35.35,0,0,1,0,.3c-.18.38-.39.75-.58,1.13-.09.18-.19.14-.29,0s-.27-.32-.44-.53l.2-.49c-.13.08-.22.12-.3.18A6.79,6.79,0,0,0,136,88.2c-.39.62-.82,1.22-1.21,1.85-.18.28-.31.61-.48.9a1.87,1.87,0,0,1-.36.43c-.36.3-.5.3-.9,0a.59.59,0,0,1-.14-.74c.06-.16.14-.31.21-.46a1.08,1.08,0,0,0,.12-.46A3.47,3.47,0,0,1,133,90c-.39.37-.77.77-1.19,1.11a1.18,1.18,0,0,1-1.62-.42c-.06-.14-.11-.29-.19-.49-.25.29-.44.56-.68.79a11.14,11.14,0,0,1-1,.92.55.55,0,0,1-.67,0c-.3-.21-.72-.24-.85-.69a3.36,3.36,0,0,1-.11-1.75c0-.08,0-.16.07-.31a1.85,1.85,0,0,1-2,0c-.34.5-.69,1-1,1.46a3.76,3.76,0,0,1-1.23,1.48.87.87,0,0,1-.91-.18,1.79,1.79,0,0,1-.48-1.67,3.09,3.09,0,0,1,.19-.61,12.28,12.28,0,0,1,1.53-2.77,5.29,5.29,0,0,1,1.65-1.33c.51-.31,1.32.2,1.38.85a1.26,1.26,0,0,1-.22.87,4.44,4.44,0,0,0-.51,1,.3.3,0,0,0,.11.27,1.44,1.44,0,0,0,1.92-.55c.42-.87.88-1.73,1.34-2.59a.76.76,0,0,1,1.12-.08.37.37,0,0,1,0,.34c-.58.93-1.18,1.85-1.78,2.78ZM121.74,91l.13.11c.13-.09.28-.16.4-.26a3.81,3.81,0,0,1,.52-.47c.54-.3.73-.85,1.06-1.3s.2-1.06-.08-1.62A8.29,8.29,0,0,0,121.74,91Zm3.43-3.83-.13,0c-.48.75-.48.75-.19,1Zm5.09,2,.07,0c.23-.44.45-.88.67-1.32a1,1,0,0,0,0-.25H131ZM137,86.58h0l1.13-1.06-.09-.09Zm-13.87,4.14.09.06a2.19,2.19,0,0,0,.61-.89l-.09,0Zm6.55-.91-.06-.06-1.11,1,.07.08Z"/><path d="M91.6,90.11a12.71,12.71,0,0,1-1.47.13c-.2,0-.54-.21-.56-.36s.25-.34.5-.4c.63-.14,1.24-.32,1.86-.5.32-.09.42-.21.51-.57A3.66,3.66,0,0,1,89.89,88s-.07,0-.07,0c-.06.65-.74.92-.93,1.52a10.6,10.6,0,0,1-.75,1.65,2.25,2.25,0,0,1-.94,1c-.62.31-1,.14-1.2-.51a4.1,4.1,0,0,1,.56-3.24,12.37,12.37,0,0,1,2-3l-.21-.12s0-.06,0-.06.13,0,.19-.09a1.07,1.07,0,0,1,1.68,1,2.57,2.57,0,0,1-.1.73.4.4,0,0,0,.19.49,2.55,2.55,0,0,0,2.51,0,1.07,1.07,0,0,0,.22-.32c.7-1.07,1.36-2.17,2.1-3.22a4.39,4.39,0,0,1,1.13-1.06,2,2,0,0,1,.94-.27.93.93,0,0,1,.82,1.25,6.15,6.15,0,0,1-.7,1.07s-.1,0-.24,0l.47-.88c0-.11.13-.31.09-.35a.55.55,0,0,0-.41-.17,1.82,1.82,0,0,0-.59.33,8.54,8.54,0,0,0-1.86,2.28,6.72,6.72,0,0,0-.4.7,9,9,0,0,0,2.59-2l.1.06a1.75,1.75,0,0,1-.19.36,12.43,12.43,0,0,1-2.7,2.37,2.05,2.05,0,0,0-.79,1c.92,0,1.85-.15,2.64.56l-.91.11c-.58.06-1.16.09-1.73.16a1,1,0,0,0-.9.75.44.44,0,0,1-.08.11l-.08,0-.34-.19-.58,1.38c.27.17.24.37.12.66a11.57,11.57,0,0,0-1,3,1.75,1.75,0,0,1-.36.84.58.58,0,0,1-.53.18c-.21-.1-.52-.26-.41-.6a12.32,12.32,0,0,1,.53-1.55c.54-1.26,1.12-2.51,1.68-3.76C91.54,90.31,91.57,90.19,91.6,90.11Zm-4.87,1.23a23.86,23.86,0,0,0,2.11-4.12C88,87.54,86.84,89.84,86.73,91.34Zm1.14-1a2.94,2.94,0,0,0,.72-1.53l-.12,0Z"/><path d="M25.55,86.8l.18-.42a5,5,0,0,0-1.58,1.45c-.49.72-1,1.46-1.44,2.2-.2.31-.34.65-.52,1a1.64,1.64,0,0,1-.29.35c-.4.33-.56.34-1,0a.65.65,0,0,1-.1-.82c.21-.47.43-.94.68-1.51a1.94,1.94,0,0,1-2.2.11c-.34.51-.7,1-1,1.49a3.45,3.45,0,0,1-1.21,1.44.84.84,0,0,1-.88-.14,1.67,1.67,0,0,1-.51-1.63,5.27,5.27,0,0,1,.38-1.14,8.28,8.28,0,0,1,1.59-2.56,8,8,0,0,1,1.43-1.09c.35-.23.73-.08,1.1.32a1.14,1.14,0,0,1,.15,1.23l-.69,1.31a1.09,1.09,0,0,0,1.26.3c.28-.1.56-.21.84-.34.05,0,.07-.11.11-.17.24-.5.48-1,.73-1.5a.7.7,0,0,1,1.07-.34c.18.1.3.22.15.45s-.32.54-.45.82a15,15,0,0,0-.63,1.56L26,85.45h0l-1.52,1.62-.16-.15a8,8,0,0,1,1.92-2c.21.33.4.63.58.93,0,.06,0,.22,0,.25a.48.48,0,0,0-.21.43,2,2,0,0,1-.41.77.27.27,0,0,1-.26,0A3.64,3.64,0,0,1,25.55,86.8Zm-7.07.64a7.65,7.65,0,0,0-2,3.65.51.51,0,0,0,.32-.08c.35-.28.7-.56,1-.86a2.92,2.92,0,0,0,.37-.48c.41-.61.83-1.21.36-2A1.39,1.39,0,0,1,18.48,87.44Zm1.23-.28c-.51.78-.51.78-.21,1C19.52,87.8,19.94,87.58,19.71,87.16Zm-1.15,2.76-.13-.08-.62.87.12.08Z"/><path d="M71,80.52a1.77,1.77,0,0,0-1.24.82C69,82.55,68.21,83.78,67.46,85c0,0,0,0,0,0,.55,0,1.1,0,1.64,0,.17,0,.44-.06.44.22,0,.12-.18.24-.31.41l0,.33a5.17,5.17,0,0,0-2.45.19c-.08,0-.16.13-.21.22a55.94,55.94,0,0,0-3.44,7.81,21.55,21.55,0,0,0-.54,2.1c-.08.31-.1.67-.48.83-.13-.17-.11-.48-.44-.37a.57.57,0,0,1-.09-.18,1.89,1.89,0,0,1,0-1.46c.31-.5.39-1.07.65-1.59s.45-1.14.7-1.71.53-1.15.79-1.72a2.92,2.92,0,0,0,.1-.35c.31,0,.18.19.14.32l-.9,2.47c-.29.79-.57,1.58-.86,2.36l.08.06a1,1,0,0,0,.19-.22c.66-1.78,1.29-3.57,2-5.34.33-.84.78-1.64,1.19-2.46.05-.1.17-.16.24-.25a.54.54,0,0,0,.07-.19c-.07,0-.14-.07-.21-.06-.24,0-.49.09-.73.11-.65,0-.8-.06-1-.7,0,0,0-.1-.12-.23.57-.11,1.11-.23,1.66-.3a1,1,0,0,0,.85-.53c.7-1.17,1.44-2.31,2.16-3.47,0-.06,0-.16,0-.24a.29.29,0,0,1,0-.16,2.62,2.62,0,0,1,2-1.28.69.69,0,0,1,.4.11,1.55,1.55,0,0,1,.28,2.65,1.64,1.64,0,0,1-.8.33c-.09,0-.29-.14-.35-.26a.38.38,0,0,1,.09-.54A1.8,1.8,0,0,0,71,80.52ZM67.33,84,69,81.6A6,6,0,0,0,67.33,84Z"/><path d="M98.13,97.11c-.14-.14-.07-.48-.4-.35a.33.33,0,0,1-.12-.19c0-.48-.16-1,0-1.42s.31-1,.54-1.39a16.27,16.27,0,0,0,.64-1.55c.2-.5.38-1,.61-1.52a11.42,11.42,0,0,1,.57-1,1.58,1.58,0,0,1,0,.37l-1.09,3-.66,1.83.09.06a1,1,0,0,0,.17-.24c.67-1.78,1.31-3.58,2-5.36.33-.83.78-1.62,1.18-2.43,0-.09.16-.14.22-.23a.74.74,0,0,0,.07-.21.56.56,0,0,0-.21,0c-.26,0-.52.08-.78.1-.57,0-.77-.1-.92-.65a1.55,1.55,0,0,0-.13-.29c.58-.1,1.12-.22,1.67-.29a1,1,0,0,0,.82-.51c.7-1.18,1.44-2.32,2.17-3.48,0-.06,0-.16,0-.24s0-.09,0-.12a2.67,2.67,0,0,1,2.18-1.33,1.61,1.61,0,0,1,1.1,1.91,1.71,1.71,0,0,1-1.22,1.17.55.55,0,0,1-.44-.18.38.38,0,0,1,0-.59,1.75,1.75,0,0,0,.66-1.48,4.75,4.75,0,0,0-.84.48,2.64,2.64,0,0,0-.6.69c-.71,1.13-1.39,2.26-2.11,3.45.41,0,.76-.06,1.12-.07a3.08,3.08,0,0,1,.68,0,1.25,1.25,0,0,1,.35.2l-.27.28-.08,0,.07.42a4.93,4.93,0,0,0-2.2.1.65.65,0,0,0-.55.42c-.5,1-1.08,2-1.52,3.06a34,34,0,0,0-2.43,6.87C98.53,96.69,98.49,97,98.13,97.11Zm7-15.59A6.85,6.85,0,0,0,103.31,84Z"/><path d="M34.67,85.84c.2-.06.41-.21.58-.17a.56.56,0,0,1,.44.76c-.2.58-.48,1.14-.65,1.72a14.23,14.23,0,0,0-.3,1.71,1.23,1.23,0,0,0,.08.53.39.39,0,0,0,.56.26l.23-.11a8.49,8.49,0,0,0,2.28-2.07.44.44,0,0,1,.16-.17,3,3,0,0,1,.43-.11c0,.17.11.36.05.5a2.25,2.25,0,0,1-.9,1.11A4.42,4.42,0,0,0,36.5,91l.28-.12c-.26.5-1.16,1-1.61.7a1.64,1.64,0,0,1-1-1.16c-.07-.51-.09-1-.14-1.62a5.33,5.33,0,0,0-.41.65,8.81,8.81,0,0,1-1.52,1.82l-.15.17.08.08.47-.61.07.07a2.4,2.4,0,0,1-1.15,1.28.77.77,0,0,1-1-.43,2.32,2.32,0,0,1,.14-2.17c.12-.19.11-.46.23-.66.54-.9,1.12-1.78,1.66-2.69a1.45,1.45,0,0,1,.85-.72c.62-.22.81-.19,1.24.3l.13.11Zm-.44,1.86-.08-.06-.22.24-.08,0,.71-1.35c-.34-.27-.56-.07-.76.13a13,13,0,0,0-2.22,2.95,3.21,3.21,0,0,0-.34,1.4l.13.09.85-.85.07,0-.23.43A16.57,16.57,0,0,0,34.23,87.7ZM36.79,90l.09.07L38,88.91l-.1-.09Z"/><path d="M56.35,87.36a4.34,4.34,0,0,1,1.25-1.74.83.83,0,0,1,.92-.21.85.85,0,0,1,.48.92,2,2,0,0,1-.31.83A5,5,0,0,1,57,88.68a.93.93,0,0,0-.58.69c0,.4-.14.79-.19,1.18a.38.38,0,0,0,.37.44,2,2,0,0,0,1.29-.3A13.87,13.87,0,0,0,60.8,88c.07-.07.21-.08.31-.12,0,.13.13.29.08.38a5.89,5.89,0,0,1-2.39,2.43s0,0-.08,0l.46-.49,0,0-1.3,1.22.18.11s0,.06-.07.08c-1.38.63-2.09,0-2.44-1.35A3.15,3.15,0,0,1,56,87.69c.08-.14.24-.22.36-.33-.06.22-.12.45-.19.67l.09,0,1.4-2a2.24,2.24,0,0,0-1.06,1.07A1.27,1.27,0,0,1,56.35,87.36Zm2.1-1.19-.08,0-1.12,1.36A1.8,1.8,0,0,0,58.45,86.17Z"/><path d="M138.67,90.55l.82-.11c.16,0,.22,0,.24.23.08.76-.49,1.09-.93,1.51a.47.47,0,0,1-.44.07.57.57,0,0,1-.24-.42,8.55,8.55,0,0,1,.26-1.22c0-.07.16-.11.25-.16Z"/><path d="M49,84.57a1.6,1.6,0,0,1,.53-1.16c.34-.43.68-.55,1.3-.11-.21.33-.4.69-.64,1C49.85,84.82,49.76,84.83,49,84.57Z"/><path d="M64.11,89.47l.36-.89c.15.27.08.48-.26.93Z"/><path d="M100.1,89.5l.36-.87.12.05c0,.34-.22.57-.33.86Z"/><path d="M47.39,86.94l-.12.27A1.68,1.68,0,0,1,47.73,86Z"/><path d="M101.64,86.69l-.48,1-.09,0,.46-1Z"/></g></g></svg>